<svg version="1.1" id="Layer_1" xmlns="http://www.w3.org/2000/svg" xmlns:xlink="http://www.w3.org/1999/xlink" x="0px" y="0px"
	 width="100%" viewBox="0 0 541 184" enable-background="new 0 0 541 184" xml:space="preserve">
<path fill="#FEFEFE" opacity="1.000000" stroke="none" 
	d="
M340.000000,185.000000 
	C226.705566,185.000000 113.911133,185.000000 1.058349,185.000000 
	C1.058349,123.726761 1.058349,62.453445 1.058349,1.090067 
	C181.211075,1.090067 361.422211,1.090067 541.816650,1.090067 
	C541.816650,62.332901 541.816650,123.666397 541.816650,185.000000 
	C474.786835,185.000000 407.643402,185.000000 340.000000,185.000000 
M388.991852,146.537781 
	C376.121521,109.451569 363.251190,72.365356 350.039673,34.296043 
	C338.570557,57.128498 327.641418,78.886002 316.469177,101.127502 
	C304.949921,78.838333 293.698883,57.068150 281.908569,34.254517 
	C276.669952,49.992527 272.003235,64.645348 266.914825,79.150230 
	C259.335876,100.754692 251.452072,122.252144 243.727997,143.805878 
	C243.287018,145.036438 242.775314,146.403702 242.918839,147.634781 
	C243.054535,148.798676 243.761047,150.407578 244.674347,150.829346 
	C245.640121,151.275360 247.501663,150.960007 248.331345,150.239548 
	C249.504166,149.221115 250.368286,147.620148 250.881149,146.104675 
	C254.926331,134.151764 258.868622,122.163918 262.815613,110.177940 
	C264.221619,105.908310 265.553192,101.614166 267.167389,96.551445 
	C277.902252,115.734230 288.109589,133.974365 298.719788,152.934357 
	C308.817780,131.900406 318.584747,111.555962 328.651855,90.586334 
	C329.324738,92.318024 329.728302,93.223473 330.033234,94.161003 
	C335.684296,111.536171 341.270447,128.932938 347.060730,146.261490 
	C347.553375,147.735840 349.370453,149.808014 350.607788,149.832916 
	C363.589355,150.094086 376.578217,149.994232 389.849182,149.994232 
	C389.574768,148.885605 389.381775,148.105774 388.991852,146.537781 
M501.092407,64.477516 
	C493.035370,51.611355 481.490967,42.947178 466.570343,41.404015 
	C446.633942,39.342094 426.495453,39.234085 406.292358,38.279804 
	C406.292358,76.321342 406.292358,113.027023 406.292358,149.020355 
	C423.066315,149.020355 439.544800,149.583496 455.961578,148.819824 
	C466.673340,148.321533 476.574677,144.139343 485.656281,138.083878 
	C511.229675,121.032112 513.716797,86.834930 501.092407,64.477516 
M75.229530,111.500107 
	C75.229530,99.251335 75.229530,87.002556 75.229530,74.658142 
	C88.690948,74.658142 101.435074,74.658142 114.494240,74.658142 
	C114.577568,76.532257 114.709946,78.155785 114.712349,79.779510 
	C114.730110,91.772018 114.830597,103.765854 114.688354,115.756706 
	C114.569916,125.740456 114.026237,135.720367 113.999763,145.702850 
	C113.995224,147.417557 115.433487,150.423218 116.559265,150.601883 
	C119.433754,151.058090 120.953674,148.876495 120.918770,145.891327 
	C120.912918,145.391693 120.902206,144.892059 120.901138,144.392410 
	C120.854988,122.906296 120.809418,101.420181 120.764763,79.934067 
	C120.761093,78.171600 120.764275,76.409126 120.764275,74.646652 
	C121.246071,74.954170 121.727867,75.261688 122.209663,75.569199 
	C124.402214,73.815498 126.594765,72.061790 128.787323,70.308083 
	C126.360512,69.231575 123.933708,68.155067 120.764229,66.749115 
	C120.764229,66.183754 120.751518,64.550499 120.766472,62.917488 
	C120.825951,56.422215 121.154533,49.912090 120.783577,43.441853 
	C120.685654,41.733826 118.438850,40.148998 117.178787,38.507599 
	C116.135918,40.261131 114.878746,41.930065 114.139267,43.803356 
	C113.761261,44.760948 114.417847,46.084160 114.423584,47.243027 
	C114.458633,54.320568 114.441109,61.398369 114.441109,68.695641 
	C101.183929,68.695641 88.437386,68.695641 75.054619,68.695641 
	C75.054619,58.726570 75.054619,49.026318 75.054619,39.328987 
	C61.640427,39.328987 48.863998,39.328987 35.844261,39.328987 
	C35.844261,76.237389 35.844261,112.965668 35.844261,149.696930 
	C49.050762,149.696930 61.963684,149.696930 75.229538,149.696930 
	C75.229538,137.100540 75.229538,124.800323 75.229530,111.500107 
M197.906357,62.576542 
	C193.625000,53.392883 189.343658,44.209221 184.738708,34.331425 
	C171.461212,66.619942 158.601715,97.891983 145.742218,129.164032 
	C145.485901,128.774567 145.229584,128.385101 144.973267,127.995628 
	C142.252258,128.861725 139.531235,129.727829 136.810226,130.593933 
	C138.482224,132.643921 140.154205,134.693893 142.330231,137.361847 
	C141.399155,139.053085 139.875778,141.800964 138.371323,144.559174 
	C137.211441,146.685608 135.905777,149.353043 139.089798,150.275467 
	C140.564606,150.702698 143.362045,149.074890 144.495316,147.574615 
	C146.143753,145.392319 147.036148,142.547531 147.871811,139.867065 
	C148.805099,136.873398 150.423050,135.824783 153.633484,135.917984 
	C162.115677,136.164246 170.691925,136.738129 179.077011,135.803131 
	C188.260925,134.779053 193.821594,137.492050 196.146988,146.655426 
	C196.493515,148.020935 198.746994,149.827087 200.149872,149.855270 
	C212.602966,150.105377 225.063187,150.000671 238.305511,150.000671 
	C224.759796,120.743172 211.459442,92.015587 197.906357,62.576542 
z"/>
<path fill="#030303" opacity="1.000000" stroke="none" 
	d="
M389.090302,146.931870 
	C389.381775,148.105774 389.574768,148.885605 389.849182,149.994232 
	C376.578217,149.994232 363.589355,150.094086 350.607788,149.832916 
	C349.370453,149.808014 347.553375,147.735840 347.060730,146.261490 
	C341.270447,128.932938 335.684296,111.536171 330.033234,94.161003 
	C329.728302,93.223473 329.324738,92.318024 328.651855,90.586334 
	C318.584747,111.555962 308.817780,131.900406 298.719788,152.934357 
	C288.109589,133.974365 277.902252,115.734230 267.167389,96.551445 
	C265.553192,101.614166 264.221619,105.908310 262.815613,110.177940 
	C258.868622,122.163918 254.926331,134.151764 250.881149,146.104675 
	C250.368286,147.620148 249.504166,149.221115 248.331345,150.239548 
	C247.501663,150.960007 245.640121,151.275360 244.674347,150.829346 
	C243.761047,150.407578 243.054535,148.798676 242.918839,147.634781 
	C242.775314,146.403702 243.287018,145.036438 243.727997,143.805878 
	C251.452072,122.252144 259.335876,100.754692 266.914825,79.150230 
	C272.003235,64.645348 276.669952,49.992527 281.908569,34.254517 
	C293.698883,57.068150 304.949921,78.838333 316.469177,101.127502 
	C327.641418,78.886002 338.570557,57.128498 350.039673,34.296043 
	C363.251190,72.365356 376.121521,109.451569 389.090302,146.931870 
z"/>
<path fill="#040404" opacity="1.000000" stroke="none" 
	d="
M501.284393,64.791695 
	C513.716797,86.834930 511.229675,121.032112 485.656281,138.083878 
	C476.574677,144.139343 466.673340,148.321533 455.961578,148.819824 
	C439.544800,149.583496 423.066315,149.020355 406.292358,149.020355 
	C406.292358,113.027023 406.292358,76.321342 406.292358,38.279804 
	C426.495453,39.234085 446.633942,39.342094 466.570343,41.404015 
	C481.490967,42.947178 493.035370,51.611355 501.284393,64.791695 
M475.837921,137.464020 
	C497.888397,125.392693 507.375824,101.623306 499.511597,77.354362 
	C492.237457,54.906544 473.444336,44.543388 446.111847,45.718235 
	C446.111847,78.144905 446.111847,110.578789 446.111847,143.562256 
	C456.416107,143.969803 466.083649,142.460022 475.837921,137.464020 
z"/>
<path fill="#030303" opacity="1.000000" stroke="none" 
	d="
M75.229538,112.000107 
	C75.229538,124.800323 75.229538,137.100540 75.229538,149.696930 
	C61.963684,149.696930 49.050762,149.696930 35.844261,149.696930 
	C35.844261,112.965668 35.844261,76.237389 35.844261,39.328987 
	C48.863998,39.328987 61.640427,39.328987 75.054619,39.328987 
	C75.054619,49.026318 75.054619,58.726570 75.054619,68.695641 
	C88.437386,68.695641 101.183929,68.695641 114.441109,68.695641 
	C114.441109,61.398369 114.458633,54.320568 114.423584,47.243027 
	C114.417847,46.084160 113.761261,44.760948 114.139267,43.803356 
	C114.878746,41.930065 116.135918,40.261131 117.178787,38.507599 
	C118.438850,40.148998 120.685654,41.733826 120.783577,43.441853 
	C121.154533,49.912090 120.825951,56.422215 120.766472,62.917488 
	C120.751518,64.550499 120.764229,66.183754 120.764229,66.749115 
	C123.933708,68.155067 126.360512,69.231575 128.787323,70.308083 
	C126.594765,72.061790 124.402214,73.815498 122.209663,75.569199 
	C121.727867,75.261688 121.246071,74.954170 120.764275,74.646652 
	C120.764275,76.409126 120.761093,78.171600 120.764763,79.934067 
	C120.809418,101.420181 120.854988,122.906296 120.901138,144.392410 
	C120.902206,144.892059 120.912918,145.391693 120.918770,145.891327 
	C120.953674,148.876495 119.433754,151.058090 116.559265,150.601883 
	C115.433487,150.423218 113.995224,147.417557 113.999763,145.702850 
	C114.026237,135.720367 114.569916,125.740456 114.688354,115.756706 
	C114.830597,103.765854 114.730110,91.772018 114.712349,79.779510 
	C114.709946,78.155785 114.577568,76.532257 114.494240,74.658142 
	C101.435074,74.658142 88.690948,74.658142 75.229530,74.658142 
	C75.229530,87.002556 75.229530,99.251335 75.229538,112.000107 
z"/>
<path fill="#050505" opacity="1.000000" stroke="none" 
	d="
M198.032715,62.932274 
	C211.459442,92.015587 224.759796,120.743172 238.305511,150.000671 
	C225.063187,150.000671 212.602966,150.105377 200.149872,149.855270 
	C198.746994,149.827087 196.493515,148.020935 196.146988,146.655426 
	C193.821594,137.492050 188.260925,134.779053 179.077011,135.803131 
	C170.691925,136.738129 162.115677,136.164246 153.633484,135.917984 
	C150.423050,135.824783 148.805099,136.873398 147.871811,139.867065 
	C147.036148,142.547531 146.143753,145.392319 144.495316,147.574615 
	C143.362045,149.074890 140.564606,150.702698 139.089798,150.275467 
	C135.905777,149.353043 137.211441,146.685608 138.371323,144.559174 
	C139.875778,141.800964 141.399155,139.053085 142.330231,137.361847 
	C140.154205,134.693893 138.482224,132.643921 136.810226,130.593933 
	C139.531235,129.727829 142.252258,128.861725 144.973267,127.995628 
	C145.229584,128.385101 145.485901,128.774567 145.742218,129.164032 
	C158.601715,97.891983 171.461212,66.619942 184.738708,34.331425 
	C189.343658,44.209221 193.625000,53.392883 198.032715,62.932274 
M153.451324,126.337555 
	C153.238388,127.404327 153.025436,128.471100 152.722778,129.987305 
	C164.688995,129.987305 176.207321,129.987305 188.230240,129.987305 
	C181.802475,116.107849 175.579239,102.670006 168.902359,88.252617 
	C163.583847,101.424248 158.705048,113.506920 153.451324,126.337555 
z"/>
<path fill="#FDFDFD" opacity="1.000000" stroke="none" 
	d="
M475.518585,137.660645 
	C466.083649,142.460022 456.416107,143.969803 446.111847,143.562256 
	C446.111847,110.578789 446.111847,78.144905 446.111847,45.718235 
	C473.444336,44.543388 492.237457,54.906544 499.511597,77.354362 
	C507.375824,101.623306 497.888397,125.392693 475.518585,137.660645 
z"/>
<path fill="#FAFAFA" opacity="1.000000" stroke="none" 
	d="
M153.638794,125.963570 
	C158.705048,113.506920 163.583847,101.424248 168.902359,88.252617 
	C175.579239,102.670006 181.802475,116.107849 188.230240,129.987305 
	C176.207321,129.987305 164.688995,129.987305 152.722778,129.987305 
	C153.025436,128.471100 153.238388,127.404327 153.638794,125.963570 
z"/>
</svg>